<svg xmlns="http://www.w3.org/2000/svg" xmlns:xlink="http://www.w3.org/1999/xlink" width="900" zoomAndPan="magnify" viewBox="0 0 675 30.000001" height="40" preserveAspectRatio="xMidYMid meet" version="1.0"><defs><clipPath id="516df2af81"><path d="M 34.605469 9 L 170.332031 9 L 170.332031 20 L 34.605469 20 Z M 34.605469 9 " clip-rule="nonzero"/></clipPath><clipPath id="542787fc3b"><path d="M 34.605469 20 L 169 20 L 169 21.960938 L 34.605469 21.960938 Z M 34.605469 20 " clip-rule="nonzero"/></clipPath><clipPath id="09c3afbb5c"><path d="M 34.605469 6.71875 L 169 6.71875 L 169 9 L 34.605469 9 Z M 34.605469 6.71875 " clip-rule="nonzero"/></clipPath><clipPath id="85a1d5eb8a"><path d="M 166.5625 9 L 302.289062 9 L 302.289062 20 L 166.5625 20 Z M 166.5625 9 " clip-rule="nonzero"/></clipPath><clipPath id="6018a62d39"><path d="M 166.5625 20 L 300 20 L 300 21.960938 L 166.5625 21.960938 Z M 166.5625 20 " clip-rule="nonzero"/></clipPath><clipPath id="326363e2d3"><path d="M 166.5625 6.71875 L 300 6.71875 L 300 9 L 166.5625 9 Z M 166.5625 6.71875 " clip-rule="nonzero"/></clipPath><clipPath id="09dccb6d04"><path d="M 298.546875 9 L 434.269531 9 L 434.269531 20 L 298.546875 20 Z M 298.546875 9 " clip-rule="nonzero"/></clipPath><clipPath id="2c542eaa9d"><path d="M 298.546875 20 L 432 20 L 432 21.960938 L 298.546875 21.960938 Z M 298.546875 20 " clip-rule="nonzero"/></clipPath><clipPath id="9cb263646f"><path d="M 298.546875 6.71875 L 432 6.71875 L 432 9 L 298.546875 9 Z M 298.546875 6.71875 " clip-rule="nonzero"/></clipPath><clipPath id="affe92ab45"><path d="M 430.667969 9 L 566.394531 9 L 566.394531 20 L 430.667969 20 Z M 430.667969 9 " clip-rule="nonzero"/></clipPath><clipPath id="952684d54f"><path d="M 430.667969 20 L 565 20 L 565 21.960938 L 430.667969 21.960938 Z M 430.667969 20 " clip-rule="nonzero"/></clipPath><clipPath id="b5fe0327bd"><path d="M 430.667969 6.71875 L 565 6.71875 L 565 9 L 430.667969 9 Z M 430.667969 6.71875 " clip-rule="nonzero"/></clipPath><clipPath id="9d4e135118"><path d="M 504.785156 9 L 640.511719 9 L 640.511719 20 L 504.785156 20 Z M 504.785156 9 " clip-rule="nonzero"/></clipPath><clipPath id="9ab27e4a97"><path d="M 504.785156 20 L 639 20 L 639 21.960938 L 504.785156 21.960938 Z M 504.785156 20 " clip-rule="nonzero"/></clipPath><clipPath id="4acb5c7d8b"><path d="M 504.785156 6.71875 L 639 6.71875 L 639 9 L 504.785156 9 Z M 504.785156 6.71875 " clip-rule="nonzero"/></clipPath></defs><g clip-path="url(#516df2af81)"><path fill="#efb470" d="M 34.691406 16.839844 L 34.691406 19.25 C 79.128906 19.25 123.570312 19.25 168.007812 19.25 L 168.007812 16.839844 C 166.40625 16.828125 164.121094 16.527344 164.121094 12.957031 C 164.121094 9.382812 169.382812 10.101562 168.75 12.316406 C 168.363281 13.664062 167.183594 13.078125 166.839844 13.535156 C 166.378906 14.148438 166.765625 14.679688 167.460938 14.652344 C 168.566406 14.609375 170.25 13.804688 170.25 12.105469 C 170.25 10.410156 168.785156 9.429688 166.683594 9.429688 C 164.578125 9.429688 162.84375 11.082031 160.648438 13.492188 C 158.453125 15.902344 157.628906 16.839844 153.195312 16.839844 C 151.59375 16.828125 149.308594 16.527344 149.308594 12.957031 C 149.308594 9.382812 154.570312 10.101562 153.9375 12.316406 C 153.546875 13.664062 152.371094 13.078125 152.027344 13.535156 C 151.566406 14.148438 151.953125 14.679688 152.644531 14.652344 C 153.753906 14.609375 155.433594 13.804688 155.433594 12.109375 C 155.433594 10.410156 153.972656 9.429688 151.871094 9.429688 C 149.765625 9.429688 148.027344 11.082031 145.835938 13.492188 C 143.640625 15.902344 142.816406 16.839844 138.382812 16.839844 C 136.78125 16.828125 134.496094 16.527344 134.496094 12.957031 C 134.496094 9.382812 139.757812 10.101562 139.121094 12.316406 C 138.734375 13.664062 137.558594 13.082031 137.214844 13.535156 C 136.753906 14.148438 137.140625 14.679688 137.832031 14.652344 C 138.941406 14.609375 140.621094 13.804688 140.621094 12.109375 C 140.621094 10.410156 139.160156 9.429688 137.054688 9.429688 C 134.953125 9.429688 133.214844 11.082031 131.019531 13.492188 C 128.828125 15.902344 128.003906 16.839844 123.570312 16.839844 C 121.96875 16.828125 119.683594 16.527344 119.683594 12.957031 C 119.683594 9.382812 124.945312 10.101562 124.308594 12.316406 C 123.921875 13.664062 122.746094 13.082031 122.402344 13.535156 C 121.9375 14.148438 122.328125 14.679688 123.019531 14.652344 C 124.128906 14.609375 125.808594 13.804688 125.808594 12.109375 C 125.808594 10.410156 124.347656 9.429688 122.242188 9.429688 C 120.140625 9.429688 118.402344 11.082031 116.207031 13.492188 C 114.011719 15.902344 113.191406 16.839844 108.753906 16.839844 C 107.15625 16.828125 104.871094 16.527344 104.871094 12.957031 C 104.871094 9.382812 110.132812 10.101562 109.496094 12.316406 C 109.109375 13.664062 107.933594 13.082031 107.589844 13.535156 C 107.125 14.152344 107.515625 14.679688 108.207031 14.652344 C 109.316406 14.609375 110.996094 13.804688 110.996094 12.109375 C 110.996094 10.410156 109.53125 9.429688 107.429688 9.429688 C 105.328125 9.429688 103.589844 11.082031 101.394531 13.492188 C 99.199219 15.902344 98.378906 16.839844 93.941406 16.839844 C 92.34375 16.828125 90.054688 16.527344 90.054688 12.957031 C 90.054688 9.382812 95.320312 10.101562 94.683594 12.316406 C 94.296875 13.664062 93.117188 13.082031 92.777344 13.535156 C 92.3125 14.152344 92.703125 14.679688 93.394531 14.652344 C 94.503906 14.609375 96.183594 13.804688 96.183594 12.109375 C 96.183594 10.410156 94.71875 9.429688 92.617188 9.429688 C 90.511719 9.429688 88.777344 11.082031 86.582031 13.492188 C 84.386719 15.902344 83.5625 16.839844 79.128906 16.839844 C 77.527344 16.828125 75.242188 16.527344 75.242188 12.957031 C 75.242188 9.382812 80.503906 10.101562 79.871094 12.316406 C 79.484375 13.667969 78.304688 13.082031 77.960938 13.535156 C 77.5 14.152344 77.886719 14.679688 78.582031 14.652344 C 79.6875 14.609375 81.371094 13.804688 81.371094 12.109375 C 81.371094 10.410156 79.90625 9.429688 77.804688 9.429688 C 75.699219 9.429688 73.960938 11.082031 71.769531 13.492188 C 69.574219 15.902344 68.75 16.839844 64.316406 16.839844 C 62.714844 16.828125 60.429688 16.527344 60.429688 12.957031 C 60.429688 9.382812 65.691406 10.101562 65.058594 12.316406 C 64.667969 13.667969 63.492188 13.082031 63.148438 13.535156 C 62.6875 14.152344 63.074219 14.679688 63.765625 14.652344 C 64.875 14.609375 66.554688 13.804688 66.554688 12.109375 C 66.554688 10.410156 65.09375 9.429688 62.992188 9.429688 C 60.886719 9.429688 59.148438 11.082031 56.957031 13.492188 C 54.761719 15.902344 53.9375 16.839844 49.503906 16.839844 C 47.902344 16.828125 45.617188 16.527344 45.617188 12.957031 C 45.617188 9.382812 50.878906 10.101562 50.242188 12.316406 C 49.855469 13.667969 48.679688 13.082031 48.335938 13.535156 C 47.875 14.152344 48.261719 14.679688 48.953125 14.652344 C 50.0625 14.609375 51.742188 13.804688 51.742188 12.109375 C 51.742188 10.410156 50.28125 9.429688 48.175781 9.429688 C 46.074219 9.429688 44.335938 11.082031 42.140625 13.492188 C 39.949219 15.902344 39.125 16.839844 34.691406 16.839844 Z M 34.691406 16.839844 " fill-opacity="1" fill-rule="evenodd"/></g><g clip-path="url(#542787fc3b)"><path fill="#efb470" d="M 34.691406 20.46875 L 168.007812 20.46875 L 168.007812 21.960938 L 34.691406 21.960938 Z M 34.691406 20.46875 " fill-opacity="1" fill-rule="evenodd"/></g><g clip-path="url(#09c3afbb5c)"><path fill="#efb470" d="M 34.691406 6.71875 L 168.007812 6.71875 L 168.007812 8.210938 L 34.691406 8.210938 Z M 34.691406 6.71875 " fill-opacity="1" fill-rule="evenodd"/></g><g clip-path="url(#85a1d5eb8a)"><path fill="#efb470" d="M 166.644531 16.839844 L 166.644531 19.25 C 211.085938 19.25 255.527344 19.25 299.964844 19.25 L 299.964844 16.839844 C 298.363281 16.828125 296.078125 16.527344 296.078125 12.957031 C 296.078125 9.382812 301.339844 10.101562 300.707031 12.316406 C 300.320312 13.664062 299.140625 13.078125 298.796875 13.535156 C 298.335938 14.148438 298.722656 14.679688 299.417969 14.652344 C 300.523438 14.609375 302.207031 13.804688 302.207031 12.105469 C 302.207031 10.410156 300.742188 9.429688 298.640625 9.429688 C 296.535156 9.429688 294.796875 11.082031 292.605469 13.492188 C 290.410156 15.902344 289.585938 16.839844 285.152344 16.839844 C 283.550781 16.828125 281.265625 16.527344 281.265625 12.957031 C 281.265625 9.382812 286.527344 10.101562 285.894531 12.316406 C 285.503906 13.664062 284.328125 13.078125 283.984375 13.535156 C 283.523438 14.148438 283.910156 14.679688 284.601562 14.652344 C 285.710938 14.609375 287.390625 13.804688 287.390625 12.109375 C 287.390625 10.410156 285.929688 9.429688 283.824219 9.429688 C 281.722656 9.429688 279.984375 11.082031 277.792969 13.492188 C 275.597656 15.902344 274.773438 16.839844 270.339844 16.839844 C 268.738281 16.828125 266.453125 16.527344 266.453125 12.957031 C 266.453125 9.382812 271.714844 10.101562 271.078125 12.316406 C 270.691406 13.664062 269.515625 13.082031 269.171875 13.535156 C 268.710938 14.148438 269.097656 14.679688 269.789062 14.652344 C 270.898438 14.609375 272.578125 13.804688 272.578125 12.109375 C 272.578125 10.410156 271.117188 9.429688 269.011719 9.429688 C 266.910156 9.429688 265.171875 11.082031 262.976562 13.492188 C 260.785156 15.902344 259.960938 16.839844 255.527344 16.839844 C 253.925781 16.828125 251.640625 16.527344 251.640625 12.957031 C 251.640625 9.382812 256.902344 10.101562 256.265625 12.316406 C 255.878906 13.664062 254.703125 13.082031 254.359375 13.535156 C 253.894531 14.148438 254.285156 14.679688 254.976562 14.652344 C 256.085938 14.609375 257.765625 13.804688 257.765625 12.109375 C 257.765625 10.410156 256.304688 9.429688 254.199219 9.429688 C 252.097656 9.429688 250.359375 11.082031 248.164062 13.492188 C 245.96875 15.902344 245.148438 16.839844 240.710938 16.839844 C 239.113281 16.828125 236.828125 16.527344 236.828125 12.957031 C 236.828125 9.382812 242.089844 10.101562 241.453125 12.316406 C 241.066406 13.664062 239.890625 13.082031 239.546875 13.535156 C 239.082031 14.152344 239.472656 14.679688 240.164062 14.652344 C 241.273438 14.609375 242.953125 13.804688 242.953125 12.109375 C 242.953125 10.410156 241.488281 9.429688 239.386719 9.429688 C 237.285156 9.429688 235.546875 11.082031 233.351562 13.492188 C 231.15625 15.902344 230.335938 16.839844 225.898438 16.839844 C 224.300781 16.828125 222.011719 16.527344 222.011719 12.957031 C 222.011719 9.382812 227.277344 10.101562 226.640625 12.316406 C 226.253906 13.664062 225.074219 13.082031 224.730469 13.535156 C 224.269531 14.152344 224.65625 14.679688 225.351562 14.652344 C 226.460938 14.609375 228.140625 13.804688 228.140625 12.109375 C 228.140625 10.410156 226.675781 9.429688 224.574219 9.429688 C 222.46875 9.429688 220.734375 11.082031 218.539062 13.492188 C 216.34375 15.902344 215.519531 16.839844 211.085938 16.839844 C 209.484375 16.828125 207.199219 16.527344 207.199219 12.957031 C 207.199219 9.382812 212.460938 10.101562 211.828125 12.316406 C 211.441406 13.667969 210.261719 13.082031 209.917969 13.535156 C 209.457031 14.152344 209.84375 14.679688 210.539062 14.652344 C 211.644531 14.609375 213.328125 13.804688 213.328125 12.109375 C 213.328125 10.410156 211.863281 9.429688 209.761719 9.429688 C 207.65625 9.429688 205.917969 11.082031 203.726562 13.492188 C 201.53125 15.902344 200.707031 16.839844 196.273438 16.839844 C 194.671875 16.828125 192.386719 16.527344 192.386719 12.957031 C 192.386719 9.382812 197.648438 10.101562 197.015625 12.316406 C 196.625 13.667969 195.449219 13.082031 195.105469 13.535156 C 194.644531 14.152344 195.03125 14.679688 195.722656 14.652344 C 196.832031 14.609375 198.511719 13.804688 198.511719 12.109375 C 198.511719 10.410156 197.050781 9.429688 194.945312 9.429688 C 192.84375 9.429688 191.105469 11.082031 188.910156 13.492188 C 186.71875 15.902344 185.894531 16.839844 181.460938 16.839844 C 179.859375 16.828125 177.574219 16.527344 177.574219 12.957031 C 177.574219 9.382812 182.835938 10.101562 182.199219 12.316406 C 181.8125 13.667969 180.636719 13.082031 180.292969 13.535156 C 179.832031 14.152344 180.21875 14.679688 180.910156 14.652344 C 182.019531 14.609375 183.699219 13.804688 183.699219 12.109375 C 183.699219 10.410156 182.238281 9.429688 180.132812 9.429688 C 178.03125 9.429688 176.292969 11.082031 174.097656 13.492188 C 171.902344 15.902344 171.082031 16.839844 166.648438 16.839844 Z M 166.644531 16.839844 " fill-opacity="1" fill-rule="evenodd"/></g><g clip-path="url(#6018a62d39)"><path fill="#efb470" d="M 166.644531 20.46875 L 299.964844 20.46875 L 299.964844 21.960938 L 166.644531 21.960938 Z M 166.644531 20.46875 " fill-opacity="1" fill-rule="evenodd"/></g><g clip-path="url(#326363e2d3)"><path fill="#efb470" d="M 166.644531 6.71875 L 299.964844 6.71875 L 299.964844 8.210938 L 166.644531 8.210938 Z M 166.644531 6.71875 " fill-opacity="1" fill-rule="evenodd"/></g><g clip-path="url(#09dccb6d04)"><path fill="#efb470" d="M 298.628906 16.839844 L 298.628906 19.25 C 343.066406 19.25 387.507812 19.25 431.949219 19.25 L 431.949219 16.839844 C 430.347656 16.828125 428.0625 16.527344 428.0625 12.957031 C 428.0625 9.382812 433.324219 10.101562 432.6875 12.316406 C 432.300781 13.664062 431.125 13.078125 430.78125 13.535156 C 430.316406 14.148438 430.707031 14.679688 431.398438 14.652344 C 432.507812 14.609375 434.1875 13.804688 434.1875 12.105469 C 434.1875 10.410156 432.726562 9.429688 430.621094 9.429688 C 428.519531 9.429688 426.78125 11.082031 424.585938 13.492188 C 422.390625 15.902344 421.570312 16.839844 417.132812 16.839844 C 415.535156 16.828125 413.25 16.527344 413.25 12.957031 C 413.25 9.382812 418.511719 10.101562 417.875 12.316406 C 417.488281 13.664062 416.3125 13.078125 415.96875 13.535156 C 415.503906 14.148438 415.894531 14.679688 416.585938 14.652344 C 417.695312 14.609375 419.375 13.804688 419.375 12.109375 C 419.375 10.410156 417.910156 9.429688 415.808594 9.429688 C 413.707031 9.429688 411.96875 11.082031 409.773438 13.492188 C 407.578125 15.902344 406.757812 16.839844 402.320312 16.839844 C 400.722656 16.828125 398.433594 16.527344 398.433594 12.957031 C 398.433594 9.382812 403.699219 10.101562 403.0625 12.316406 C 402.675781 13.664062 401.496094 13.082031 401.152344 13.535156 C 400.691406 14.148438 401.078125 14.679688 401.773438 14.652344 C 402.878906 14.609375 404.5625 13.804688 404.5625 12.109375 C 404.5625 10.410156 403.097656 9.429688 400.996094 9.429688 C 398.890625 9.429688 397.15625 11.082031 394.960938 13.492188 C 392.765625 15.902344 391.941406 16.839844 387.507812 16.839844 C 385.90625 16.828125 383.621094 16.527344 383.621094 12.957031 C 383.621094 9.382812 388.882812 10.101562 388.25 12.316406 C 387.859375 13.664062 386.683594 13.082031 386.339844 13.535156 C 385.878906 14.148438 386.265625 14.679688 386.960938 14.652344 C 388.066406 14.609375 389.75 13.804688 389.75 12.109375 C 389.75 10.410156 388.285156 9.429688 386.183594 9.429688 C 384.078125 9.429688 382.339844 11.082031 380.148438 13.492188 C 377.953125 15.902344 377.128906 16.839844 372.695312 16.839844 C 371.09375 16.828125 368.808594 16.527344 368.808594 12.957031 C 368.808594 9.382812 374.070312 10.101562 373.4375 12.316406 C 373.046875 13.664062 371.871094 13.082031 371.527344 13.535156 C 371.066406 14.152344 371.453125 14.679688 372.144531 14.652344 C 373.253906 14.609375 374.933594 13.804688 374.933594 12.109375 C 374.933594 10.410156 373.472656 9.429688 371.367188 9.429688 C 369.265625 9.429688 367.527344 11.082031 365.332031 13.492188 C 363.140625 15.902344 362.316406 16.839844 357.882812 16.839844 C 356.28125 16.828125 353.996094 16.527344 353.996094 12.957031 C 353.996094 9.382812 359.257812 10.101562 358.621094 12.316406 C 358.234375 13.664062 357.058594 13.082031 356.714844 13.535156 C 356.253906 14.152344 356.640625 14.679688 357.332031 14.652344 C 358.441406 14.609375 360.121094 13.804688 360.121094 12.109375 C 360.121094 10.410156 358.660156 9.429688 356.554688 9.429688 C 354.453125 9.429688 352.714844 11.082031 350.519531 13.492188 C 348.324219 15.902344 347.503906 16.839844 343.070312 16.839844 C 341.46875 16.828125 339.183594 16.527344 339.183594 12.957031 C 339.183594 9.382812 344.445312 10.101562 343.808594 12.316406 C 343.421875 13.667969 342.246094 13.082031 341.902344 13.535156 C 341.4375 14.152344 341.828125 14.679688 342.519531 14.652344 C 343.628906 14.609375 345.308594 13.804688 345.308594 12.109375 C 345.308594 10.410156 343.847656 9.429688 341.742188 9.429688 C 339.640625 9.429688 337.902344 11.082031 335.707031 13.492188 C 333.511719 15.902344 332.691406 16.839844 328.253906 16.839844 C 326.65625 16.828125 324.371094 16.527344 324.371094 12.957031 C 324.371094 9.382812 329.632812 10.101562 328.996094 12.316406 C 328.609375 13.667969 327.433594 13.082031 327.089844 13.535156 C 326.625 14.152344 327.015625 14.679688 327.707031 14.652344 C 328.816406 14.609375 330.496094 13.804688 330.496094 12.109375 C 330.496094 10.410156 329.03125 9.429688 326.929688 9.429688 C 324.828125 9.429688 323.089844 11.082031 320.894531 13.492188 C 318.699219 15.902344 317.878906 16.839844 313.441406 16.839844 C 311.84375 16.828125 309.554688 16.527344 309.554688 12.957031 C 309.554688 9.382812 314.820312 10.101562 314.183594 12.316406 C 313.796875 13.667969 312.617188 13.082031 312.273438 13.535156 C 311.8125 14.152344 312.199219 14.679688 312.894531 14.652344 C 314 14.609375 315.683594 13.804688 315.683594 12.109375 C 315.683594 10.410156 314.21875 9.429688 312.117188 9.429688 C 310.011719 9.429688 308.277344 11.082031 306.082031 13.492188 C 303.886719 15.902344 303.0625 16.839844 298.628906 16.839844 Z M 298.628906 16.839844 " fill-opacity="1" fill-rule="evenodd"/></g><g clip-path="url(#2c542eaa9d)"><path fill="#efb470" d="M 298.628906 20.46875 L 431.949219 20.46875 L 431.949219 21.960938 L 298.628906 21.960938 Z M 298.628906 20.46875 " fill-opacity="1" fill-rule="evenodd"/></g><g clip-path="url(#9cb263646f)"><path fill="#efb470" d="M 298.628906 6.71875 L 431.949219 6.71875 L 431.949219 8.210938 L 298.628906 8.210938 Z M 298.628906 6.71875 " fill-opacity="1" fill-rule="evenodd"/></g><g clip-path="url(#affe92ab45)"><path fill="#efb470" d="M 430.75 16.839844 L 430.75 19.25 C 475.191406 19.25 519.628906 19.25 564.070312 19.25 L 564.070312 16.839844 C 562.46875 16.828125 560.183594 16.527344 560.183594 12.957031 C 560.183594 9.382812 565.445312 10.101562 564.808594 12.316406 C 564.421875 13.664062 563.246094 13.078125 562.902344 13.535156 C 562.441406 14.148438 562.828125 14.679688 563.519531 14.652344 C 564.628906 14.609375 566.308594 13.804688 566.308594 12.105469 C 566.308594 10.410156 564.847656 9.429688 562.742188 9.429688 C 560.640625 9.429688 558.902344 11.082031 556.707031 13.492188 C 554.515625 15.902344 553.691406 16.839844 549.257812 16.839844 C 547.65625 16.828125 545.371094 16.527344 545.371094 12.957031 C 545.371094 9.382812 550.632812 10.101562 549.996094 12.316406 C 549.609375 13.664062 548.433594 13.078125 548.089844 13.535156 C 547.625 14.148438 548.015625 14.679688 548.707031 14.652344 C 549.816406 14.609375 551.496094 13.804688 551.496094 12.109375 C 551.496094 10.410156 550.035156 9.429688 547.929688 9.429688 C 545.828125 9.429688 544.089844 11.082031 541.894531 13.492188 C 539.699219 15.902344 538.878906 16.839844 534.441406 16.839844 C 532.84375 16.828125 530.558594 16.527344 530.558594 12.957031 C 530.558594 9.382812 535.820312 10.101562 535.183594 12.316406 C 534.796875 13.664062 533.621094 13.082031 533.277344 13.535156 C 532.8125 14.148438 533.203125 14.679688 533.894531 14.652344 C 535.003906 14.609375 536.683594 13.804688 536.683594 12.109375 C 536.683594 10.410156 535.21875 9.429688 533.117188 9.429688 C 531.015625 9.429688 529.277344 11.082031 527.082031 13.492188 C 524.886719 15.902344 524.066406 16.839844 519.628906 16.839844 C 518.03125 16.828125 515.742188 16.527344 515.742188 12.957031 C 515.742188 9.382812 521.007812 10.101562 520.371094 12.316406 C 519.984375 13.664062 518.804688 13.082031 518.460938 13.535156 C 518 14.148438 518.386719 14.679688 519.082031 14.652344 C 520.191406 14.609375 521.871094 13.804688 521.871094 12.109375 C 521.871094 10.410156 520.40625 9.429688 518.304688 9.429688 C 516.199219 9.429688 514.464844 11.082031 512.269531 13.492188 C 510.074219 15.902344 509.25 16.839844 504.816406 16.839844 C 503.214844 16.828125 500.929688 16.527344 500.929688 12.957031 C 500.929688 9.382812 506.191406 10.101562 505.558594 12.316406 C 505.171875 13.664062 503.992188 13.082031 503.648438 13.535156 C 503.1875 14.152344 503.574219 14.679688 504.269531 14.652344 C 505.375 14.609375 507.058594 13.804688 507.058594 12.109375 C 507.058594 10.410156 505.59375 9.429688 503.492188 9.429688 C 501.386719 9.429688 499.648438 11.082031 497.457031 13.492188 C 495.261719 15.902344 494.4375 16.839844 490.003906 16.839844 C 488.402344 16.828125 486.117188 16.527344 486.117188 12.957031 C 486.117188 9.382812 491.378906 10.101562 490.746094 12.316406 C 490.355469 13.664062 489.179688 13.082031 488.835938 13.535156 C 488.375 14.152344 488.761719 14.679688 489.453125 14.652344 C 490.5625 14.609375 492.242188 13.804688 492.242188 12.109375 C 492.242188 10.410156 490.78125 9.429688 488.675781 9.429688 C 486.574219 9.429688 484.835938 11.082031 482.640625 13.492188 C 480.449219 15.902344 479.625 16.839844 475.191406 16.839844 C 473.589844 16.828125 471.304688 16.527344 471.304688 12.957031 C 471.304688 9.382812 476.566406 10.101562 475.929688 12.316406 C 475.542969 13.667969 474.367188 13.082031 474.023438 13.535156 C 473.5625 14.152344 473.949219 14.679688 474.640625 14.652344 C 475.75 14.609375 477.429688 13.804688 477.429688 12.109375 C 477.429688 10.410156 475.96875 9.429688 473.863281 9.429688 C 471.761719 9.429688 470.023438 11.082031 467.828125 13.492188 C 465.636719 15.902344 464.8125 16.839844 460.378906 16.839844 C 458.777344 16.828125 456.492188 16.527344 456.492188 12.957031 C 456.492188 9.382812 461.753906 10.101562 461.117188 12.316406 C 460.730469 13.667969 459.554688 13.082031 459.210938 13.535156 C 458.746094 14.152344 459.136719 14.679688 459.828125 14.652344 C 460.9375 14.609375 462.617188 13.804688 462.617188 12.109375 C 462.617188 10.410156 461.15625 9.429688 459.050781 9.429688 C 456.949219 9.429688 455.210938 11.082031 453.015625 13.492188 C 450.820312 15.902344 450 16.839844 445.5625 16.839844 C 443.964844 16.828125 441.679688 16.527344 441.679688 12.957031 C 441.679688 9.382812 446.941406 10.101562 446.304688 12.316406 C 445.917969 13.667969 444.742188 13.082031 444.398438 13.535156 C 443.933594 14.152344 444.324219 14.679688 445.015625 14.652344 C 446.125 14.609375 447.804688 13.804688 447.804688 12.109375 C 447.804688 10.410156 446.339844 9.429688 444.238281 9.429688 C 442.136719 9.429688 440.398438 11.082031 438.203125 13.492188 C 436.007812 15.902344 435.1875 16.839844 430.75 16.839844 Z M 430.75 16.839844 " fill-opacity="1" fill-rule="evenodd"/></g><g clip-path="url(#952684d54f)"><path fill="#efb470" d="M 430.75 20.46875 L 564.070312 20.46875 L 564.070312 21.960938 L 430.75 21.960938 Z M 430.75 20.46875 " fill-opacity="1" fill-rule="evenodd"/></g><g clip-path="url(#b5fe0327bd)"><path fill="#efb470" d="M 430.75 6.71875 L 564.070312 6.71875 L 564.070312 8.210938 L 430.75 8.210938 Z M 430.75 6.71875 " fill-opacity="1" fill-rule="evenodd"/></g><g clip-path="url(#9d4e135118)"><path fill="#efb470" d="M 504.871094 16.839844 L 504.871094 19.25 C 549.308594 19.25 593.75 19.25 638.1875 19.25 L 638.1875 16.839844 C 636.589844 16.828125 634.304688 16.527344 634.304688 12.957031 C 634.304688 9.382812 639.566406 10.101562 638.929688 12.316406 C 638.542969 13.664062 637.367188 13.078125 637.023438 13.535156 C 636.558594 14.148438 636.949219 14.679688 637.640625 14.652344 C 638.75 14.609375 640.429688 13.804688 640.429688 12.105469 C 640.429688 10.410156 638.964844 9.429688 636.863281 9.429688 C 634.761719 9.429688 633.023438 11.082031 630.828125 13.492188 C 628.632812 15.902344 627.8125 16.839844 623.375 16.839844 C 621.777344 16.828125 619.488281 16.527344 619.488281 12.957031 C 619.488281 9.382812 624.753906 10.101562 624.117188 12.316406 C 623.730469 13.664062 622.550781 13.078125 622.207031 13.535156 C 621.746094 14.148438 622.136719 14.679688 622.828125 14.652344 C 623.9375 14.609375 625.617188 13.804688 625.617188 12.109375 C 625.617188 10.410156 624.152344 9.429688 622.050781 9.429688 C 619.945312 9.429688 618.210938 11.082031 616.015625 13.492188 C 613.820312 15.902344 612.996094 16.839844 608.5625 16.839844 C 606.960938 16.828125 604.675781 16.527344 604.675781 12.957031 C 604.675781 9.382812 609.9375 10.101562 609.304688 12.316406 C 608.917969 13.664062 607.738281 13.082031 607.394531 13.535156 C 606.933594 14.148438 607.320312 14.679688 608.015625 14.652344 C 609.121094 14.609375 610.804688 13.804688 610.804688 12.109375 C 610.804688 10.410156 609.339844 9.429688 607.238281 9.429688 C 605.132812 9.429688 603.394531 11.082031 601.203125 13.492188 C 599.007812 15.902344 598.183594 16.839844 593.75 16.839844 C 592.148438 16.828125 589.863281 16.527344 589.863281 12.957031 C 589.863281 9.382812 595.125 10.101562 594.492188 12.316406 C 594.101562 13.664062 592.925781 13.082031 592.582031 13.535156 C 592.121094 14.148438 592.507812 14.679688 593.199219 14.652344 C 594.308594 14.609375 595.988281 13.804688 595.988281 12.109375 C 595.988281 10.410156 594.527344 9.429688 592.421875 9.429688 C 590.320312 9.429688 588.582031 11.082031 586.390625 13.492188 C 584.195312 15.902344 583.371094 16.839844 578.9375 16.839844 C 577.335938 16.828125 575.050781 16.527344 575.050781 12.957031 C 575.050781 9.382812 580.3125 10.101562 579.675781 12.316406 C 579.289062 13.664062 578.113281 13.082031 577.769531 13.535156 C 577.308594 14.152344 577.695312 14.679688 578.386719 14.652344 C 579.496094 14.609375 581.175781 13.804688 581.175781 12.109375 C 581.175781 10.410156 579.714844 9.429688 577.609375 9.429688 C 575.507812 9.429688 573.769531 11.082031 571.574219 13.492188 C 569.382812 15.902344 568.558594 16.839844 564.125 16.839844 C 562.523438 16.828125 560.238281 16.527344 560.238281 12.957031 C 560.238281 9.382812 565.5 10.101562 564.863281 12.316406 C 564.476562 13.664062 563.300781 13.082031 562.957031 13.535156 C 562.492188 14.152344 562.882812 14.679688 563.574219 14.652344 C 564.683594 14.609375 566.363281 13.804688 566.363281 12.109375 C 566.363281 10.410156 564.902344 9.429688 562.796875 9.429688 C 560.695312 9.429688 558.957031 11.082031 556.761719 13.492188 C 554.566406 15.902344 553.746094 16.839844 549.308594 16.839844 C 547.710938 16.828125 545.425781 16.527344 545.425781 12.957031 C 545.425781 9.382812 550.6875 10.101562 550.050781 12.316406 C 549.664062 13.667969 548.488281 13.082031 548.144531 13.535156 C 547.679688 14.152344 548.070312 14.679688 548.761719 14.652344 C 549.871094 14.609375 551.550781 13.804688 551.550781 12.109375 C 551.550781 10.410156 550.085938 9.429688 547.984375 9.429688 C 545.882812 9.429688 544.144531 11.082031 541.949219 13.492188 C 539.753906 15.902344 538.933594 16.839844 534.496094 16.839844 C 532.898438 16.828125 530.609375 16.527344 530.609375 12.957031 C 530.609375 9.382812 535.875 10.101562 535.238281 12.316406 C 534.851562 13.667969 533.671875 13.082031 533.328125 13.535156 C 532.867188 14.152344 533.253906 14.679688 533.949219 14.652344 C 535.058594 14.609375 536.738281 13.804688 536.738281 12.109375 C 536.738281 10.410156 535.273438 9.429688 533.171875 9.429688 C 531.066406 9.429688 529.332031 11.082031 527.136719 13.492188 C 524.941406 15.902344 524.117188 16.839844 519.683594 16.839844 C 518.082031 16.828125 515.796875 16.527344 515.796875 12.957031 C 515.796875 9.382812 521.058594 10.101562 520.425781 12.316406 C 520.035156 13.667969 518.859375 13.082031 518.515625 13.535156 C 518.054688 14.152344 518.441406 14.679688 519.136719 14.652344 C 520.242188 14.609375 521.925781 13.804688 521.925781 12.109375 C 521.925781 10.410156 520.460938 9.429688 518.359375 9.429688 C 516.253906 9.429688 514.515625 11.082031 512.324219 13.492188 C 510.128906 15.902344 509.304688 16.839844 504.871094 16.839844 Z M 504.871094 16.839844 " fill-opacity="1" fill-rule="evenodd"/></g><g clip-path="url(#9ab27e4a97)"><path fill="#efb470" d="M 504.871094 20.46875 L 638.1875 20.46875 L 638.1875 21.960938 L 504.871094 21.960938 Z M 504.871094 20.46875 " fill-opacity="1" fill-rule="evenodd"/></g><g clip-path="url(#4acb5c7d8b)"><path fill="#efb470" d="M 504.871094 6.71875 L 638.1875 6.71875 L 638.1875 8.210938 L 504.871094 8.210938 Z M 504.871094 6.71875 " fill-opacity="1" fill-rule="evenodd"/></g></svg>